<?xml version="1.0" standalone="no"?>
<!DOCTYPE svg PUBLIC "-//W3C//DTD SVG 1.1//EN" "http://www.w3.org/Graphics/SVG/1.1/DTD/svg11.dtd" >
<svg xmlns="http://www.w3.org/2000/svg">
<metadata>Generated by IcoMoon</metadata>
<defs>
<font id="lego-icommon" horiz-adv-x="1024">
<font-face units-per-em="1024" ascent="960" descent="-64" />
<missing-glyph horiz-adv-x="1024" />
<glyph unicode="&#x20;" horiz-adv-x="512" d="" />
<glyph unicode="&#xe900;" glyph-name="descend" d="M511.097-64c-27.090 0-52.374 10.836-70.434 28.896l-357.587 359.393c-37.926 37.926-37.926 101.136 0 140.868 37.926 37.926 101.136 37.926 140.868 0l288.959-288.959 288.959 288.959c37.926 37.926 101.136 37.926 140.868 0 37.926-37.926 37.926-101.136 0-140.868l-361.199-359.393c-18.060-18.060-43.344-28.896-70.434-28.896zM511.097 15.464c-54.18 0-99.33 45.15-99.33 99.33v745.877c0 54.18 45.15 99.33 99.33 99.33s99.33-45.15 99.33-99.33v-745.877c0-54.18-43.344-99.33-99.33-99.33z" />
<glyph unicode="&#xe901;" glyph-name="filter" d="M879.52 882.342c30.702 0 36.12-16.254 36.12-45.15 0-12.642-5.418-25.284-12.642-34.314 0-1.806-1.806-1.806-1.806-3.612l-287.153-292.571c-12.642-12.642-14.448-23.478-14.448-41.538v-406.349l-180.6 140.868v281.735c0 18.060-7.224 21.672-19.866 36.12l-272.705 279.929c-1.806 1.806-3.612 3.612-3.612 5.418-9.030 9.030-14.448 21.672-14.448 34.314 0 28.896 30.702 45.15 61.404 45.15h709.757zM859.654 960h-697.115c-68.628 0-124.614-55.986-124.614-122.808 0-28.896 10.836-57.792 28.896-79.464 1.806-1.806 3.612-3.612 5.418-5.418l270.899-278.123v-296.183c0-10.836 9.030-25.284 16.254-30.702 0 0 0 0 1.806-1.806l247.422-198.66c7.224-5.418 14.448-7.224 21.672-7.224 9.030 0 19.866 3.612 25.284 12.642 7.224 7.224 21.672 30.702 19.866 39.732v482.201l272.705 276.317c1.806 1.806 1.806 3.612 3.612 3.612 19.866 21.672 30.702 50.568 30.702 81.27 1.806 68.628-54.18 124.614-122.808 124.614z" />
<glyph unicode="&#xe902;" glyph-name="help" d="M657.383 887.76v-438.857c0-19.866-16.254-36.12-36.12-36.12-9.030 0-16.254 3.612-23.478 7.224l-101.136 83.076c-12.642 10.836-32.508 10.836-45.15 0l-101.136-81.27c-16.254-12.642-37.926-9.030-50.568 5.418-5.418 5.418-7.224 12.642-7.224 19.866v440.663h-146.286v-803.668c0-19.866 7.224-37.926 21.672-52.374s32.508-21.672 52.374-21.672h657.383v877.714h-220.332zM364.811 887.76v-361.199l41.538 32.508c39.732 32.508 97.524 32.508 137.256 0l41.538-32.508v433.439h292.571c19.866 0 37.926-7.224 52.374-21.672 12.642-12.642 19.866-32.508 19.866-50.568v-877.714c0-39.732-32.508-72.24-72.24-72.24h-659.189c-81.27 0-146.286 65.016-146.286 146.286v803.668c0 39.732 32.508 72.24 72.24 72.24h218.526v-72.24zM474.977 849.834c-30.702 0-54.18 25.284-54.18 54.18 0 30.702 25.284 54.18 54.18 54.18 30.702 0 54.18-25.284 54.18-54.18s-23.478-54.18-54.18-54.18v0zM877.714 156.332h-659.189c-39.732 0-72.24-32.508-72.24-72.24s32.508-72.24 72.24-72.24h657.383v144.48zM218.526 228.571h731.429v-218.526c0-19.866-7.224-37.926-21.672-52.374s-32.508-21.672-52.374-21.672h-657.383c-81.27 0-146.286 65.016-146.286 146.286s66.822 146.286 146.286 146.286v0z" />
<glyph unicode="&#xe903;" glyph-name="info" d="M511.097 960c-281.735 0-511.097-229.362-511.097-511.097 0-283.541 229.362-512.903 511.097-512.903 283.541 0 512.903 229.362 512.903 512.903 0 281.735-229.362 511.097-512.903 511.097v0 0zM509.291 89.51c-41.538 0-75.852 32.508-75.852 74.046s34.314 74.046 75.852 74.046c41.538 0 75.852-32.508 75.852-74.046-1.806-39.732-34.314-74.046-75.852-74.046v0 0zM711.563 508.501c-14.448-23.478-46.956-54.18-93.912-95.718-25.284-19.866-39.732-37.926-46.956-50.568-5.418-12.642-9.030-34.314-9.030-68.628h-108.36c0 16.254 0 25.284 0 28.896 0 34.314 5.418 63.21 18.060 86.688 10.836 21.672 34.314 46.956 68.628 75.852s55.986 46.956 61.404 55.986c10.836 14.448 16.254 28.896 16.254 45.15 0 23.478-9.030 43.344-27.090 59.598s-43.344 25.284-74.046 25.284c-30.702 0-55.986-9.030-75.852-25.284s-37.926-54.18-41.538-77.658c-3.612-21.672-110.166-30.702-108.36 12.642 1.806 45.15 25.284 92.106 65.016 128.226 39.732 34.314 92.106 52.374 157.122 52.374 68.628 0 122.808-18.060 162.54-54.18s59.598-77.658 59.598-124.614c-1.806-25.284-9.030-50.568-23.478-74.046v0 0z" />
<glyph unicode="&#xe904;" glyph-name="logo-philips" d="M214.914 792.042h-5.418v50.568c1.806 0 3.612 0 5.418 0 18.060 0 27.090-9.030 27.090-23.478 0-16.254-7.224-27.090-27.090-27.090zM722.399 817.326c0 14.448-9.030 23.478-27.090 23.478-1.806 0-3.612 0-5.418 0v-50.568h5.418c18.060 1.806 27.090 12.642 27.090 27.090zM606.815 96.734c-1.806 7.224-7.224 45.15-7.224 45.15h-3.612c0 0-3.612-37.926-7.224-45.15-1.806-7.224-7.224-9.030-10.836-10.836-7.224-1.806-45.15-7.224-45.15-7.224v-3.612c0 0 37.926-3.612 45.15-7.224 5.418-1.806 9.030-3.612 10.836-10.836s7.224-45.15 7.224-45.15h3.612c0 0 3.612 37.926 7.224 45.15 1.806 7.224 7.224 9.030 10.836 10.836 7.224 1.806 45.15 7.224 45.15 7.224v1.806c0 0-37.926 3.612-45.15 7.224-3.612 1.806-9.030 5.418-10.836 12.642zM913.834 938.328v-599.591c0-222.138-180.6-402.737-400.931-402.737-225.75 0-400.931 180.6-400.931 402.737v599.591c50.568 5.418 218.526 21.672 399.125 21.672 178.794 0 348.557-14.448 402.737-21.672zM166.152 295.393c43.344-28.896 104.748-41.538 157.122-41.538 77.658 0 124.614 23.478 175.182 48.762 70.434 34.314 128.226 72.24 220.332 72.24 55.986 0 104.748-14.448 140.868-34.314 0 14.448-1.806 28.896-3.612 43.344-43.344 27.090-104.748 41.538-157.122 41.538-77.658 0-124.614-23.478-175.182-48.762-66.822-32.508-128.226-72.24-220.332-72.24-55.986 0-104.748 14.448-140.868 34.314 0 0 0 0 0 0 1.806-16.254 1.806-30.702 3.612-43.344zM413.573 622.279c1.806 7.224 5.418 39.732 7.224 52.374-27.090-7.224-54.18-18.060-79.464-32.508 1.806-10.836 3.612-27.090 5.418-41.538 12.642 1.806 45.15 5.418 52.374 7.224s12.642 5.418 14.448 14.448zM413.573 575.323c-1.806 9.030-9.030 12.642-14.448 14.448-7.224 1.806-39.732 5.418-52.374 7.224 1.806-18.060 5.418-34.314 7.224-39.732 3.612-16.254 14.448-21.672 25.284-25.284 5.418-1.806 23.478-3.612 41.538-7.224 0 12.642-3.612 43.344-7.224 50.568zM166.152 382.081c37.926-14.448 81.27-23.478 117.39-23.478 16.254 0 32.508 1.806 48.762 3.612-1.806 12.642-10.836 92.106-14.448 106.554-3.612 16.254-14.448 21.672-25.284 25.284s-57.792 9.030-86.688 12.642c-19.866-37.926-34.314-79.464-39.732-124.614zM294.377 530.173c10.836 3.612 19.866 9.030 25.284 25.284 3.612 10.836 9.030 50.568 10.836 79.464-46.956-28.896-86.688-68.628-115.584-115.584 27.090 3.612 68.628 9.030 79.464 10.836zM688.085 315.259c0-7.224 10.836-93.912 14.448-108.36 3.612-16.254 14.448-21.672 25.284-25.284s59.598-9.030 88.494-12.642c21.672 37.926 36.12 81.27 41.538 126.42-37.926 16.254-83.076 23.478-119.196 23.478-18.060 0-34.314 0-50.568-3.612zM827.146 773.982c0-7.224-5.418-12.642-19.866-12.642-12.642 0-30.702 3.612-41.538 9.030l3.612-28.896c10.836-3.612 27.090-5.418 39.732-5.418 30.702 0 55.986 10.836 55.986 41.538 0 41.538-59.598 32.508-59.598 52.374 0 7.224 7.224 9.030 18.060 9.030 12.642 0 25.284-1.806 32.508-5.418l-3.612 27.090c-9.030 1.806-18.060 3.612-34.314 3.612-30.702 0-50.568-12.642-50.568-36.12 0-43.344 59.598-34.314 59.598-54.18zM512.903 685.489c-28.896 0-57.792-3.612-84.882-10.836 1.806-12.642 5.418-46.956 7.224-54.18 1.806-9.030 9.030-12.642 14.448-14.448 9.030-1.806 57.792-7.224 57.792-7.224v-3.612c0 0-48.762-5.418-57.792-9.030-5.418-1.806-10.836-5.418-14.448-14.448-1.806-7.224-5.418-37.926-7.224-52.374 28.896-3.612 59.598-7.224 59.598-7.224v-3.612c0 0-90.3-10.836-106.554-14.448-10.836-3.612-21.672-9.030-25.284-25.284-3.612-14.448-12.642-93.912-14.448-104.748 65.016 10.836 119.196 45.15 160.734 65.016 57.792 28.896 111.972 50.568 186.018 50.568 63.21 0 119.196-19.866 160.734-45.15-43.344 144.48-178.794 251.034-335.915 251.034zM650.159 739.668h36.12v28.896h12.642c34.314 0 55.986 18.060 55.986 48.762 0 34.314-23.478 46.956-61.404 46.956-14.448 0-32.508-1.806-45.15-1.806v-122.808zM583.337 739.668h37.926v122.808h-37.926v-122.808zM498.455 739.668h66.822l5.418 25.284h-36.12v97.524h-37.926v-122.808zM433.439 739.668h36.12v122.808h-36.12v-122.808zM290.765 739.668h37.926v48.762h39.732v-48.762h37.926v122.808h-37.926v-48.762h-39.732v48.762h-37.926v-122.808zM169.764 739.668h37.926v28.896h12.642c34.314 0 55.986 18.060 55.986 48.762 0 34.314-23.478 46.956-61.404 46.956-14.448 0-32.508-1.806-45.15-1.806v-122.808zM512.903-9.82c61.404 0 119.196 16.254 167.958 43.344-3.612 27.090-9.030 77.658-12.642 88.494-3.612 16.254-14.448 21.672-25.284 25.284-16.254 3.612-106.554 14.448-106.554 14.448v5.418c0 0 90.3 10.836 106.554 14.448 10.836 3.612 19.866 9.030 25.284 25.284 3.612 14.448 14.448 99.33 14.448 106.554-61.404-10.836-104.748-39.732-158.928-66.822-57.792-28.896-111.972-50.568-186.018-50.568-63.21 0-121.002 19.866-162.54 46.956 43.344-146.286 176.988-252.84 337.721-252.84zM810.892 158.138c-28.896-3.612-70.434-9.030-81.27-12.642s-21.672-9.030-25.284-25.284c-3.612-10.836-9.030-52.374-12.642-81.27 48.762 30.702 90.3 70.434 119.196 119.196z" />
<glyph unicode="&#xe905;" glyph-name="menu_dashboard" d="M852.43 705.354c-5.418 0-10.836-1.806-14.448-3.612-61.404-41.538-370.229-252.84-402.737-285.347-19.866-19.866-32.508-46.956-32.508-75.852s10.836-55.986 32.508-75.852 46.956-32.508 75.852-32.508c28.896 0 55.986 10.836 75.852 32.508 32.508 32.508 242.004 339.527 285.347 402.737 7.224 10.836 5.418 23.478-3.612 32.508-3.612 3.612-10.836 5.418-16.254 5.418zM704.339 510.307c-61.404-86.688-137.256-195.048-151.704-211.302-10.836-10.836-25.284-16.254-39.732-16.254s-28.896 5.418-39.732 16.254c-21.672 21.672-21.672 57.792 0 79.464 16.254 16.254 122.808 92.106 211.302 151.704l70.434 48.762-50.568-68.628zM180.6 134.66l-63.21-30.702-7.224 12.642c-37.926 68.628-57.792 144.48-57.792 223.944 0 55.986 10.836 111.972 30.702 164.346l5.418 16.254 74.046-34.314c12.642-5.418 28.896 0 34.314 12.642 3.612 5.418 3.612 12.642 1.806 19.866s-7.224 10.836-12.642 14.448l-72.24 34.314 5.418 12.642c75.852 122.808 205.884 204.078 350.363 216.72l16.254 1.806v-79.464c0-14.448 10.836-25.284 25.284-25.284s25.284 10.836 25.284 25.284v79.464l18.060-1.806c50.568-5.418 99.33-18.060 146.286-37.926 12.642-5.418 28.896 0 34.314 12.642s0 28.896-12.642 34.314c-66.822 30.702-137.256 45.15-211.302 45.15-137.256 0-265.481-52.374-361.199-149.898-97.524-95.718-149.898-225.75-149.898-361.199 0-101.136 30.702-198.66 86.688-283.541 7.224-10.836 21.672-14.448 32.508-9.030l84.882 41.538c5.418 3.612 10.836 9.030 12.642 14.448 1.806 7.224 1.806 12.642-1.806 19.866-5.418 10.836-21.672 16.254-34.314 10.836zM978.85 550.039c-5.418 12.642-21.672 18.060-34.314 12.642-5.418-3.612-10.836-7.224-12.642-14.448s-1.806-12.642 0-19.866c27.090-59.598 39.732-122.808 39.732-189.63 0-77.658-19.866-155.316-59.598-223.944l-7.224-12.642-66.822 30.702c-3.612 1.806-7.224 1.806-10.836 1.806-9.030 0-19.866-5.418-23.478-14.448-3.612-5.418-3.612-12.642-1.806-19.866s7.224-10.836 12.642-14.448l86.688-41.538c10.836-5.418 25.284-1.806 32.508 9.030 55.986 84.882 86.688 182.406 86.688 283.541 3.612 75.852-10.836 146.286-41.538 213.108z" />
<glyph unicode="&#xe906;" glyph-name="menu_data" d="M32.508 421.813c-7.224 0-14.448 3.612-19.866 9.030-9.030 10.836-7.224 27.090 3.612 36.12l290.765 243.81c10.836 9.030 25.284 7.224 34.314-1.806l187.824-178.794 438.857 397.319c10.836 9.030 27.090 9.030 36.12-1.806s9.030-27.090-1.806-36.12l-456.917-411.767c-10.836-9.030-25.284-9.030-34.314 0l-187.824 178.794-274.511-229.362c-5.418-3.612-10.836-5.418-16.254-5.418zM991.492 674.653c-14.448 0-25.284 10.836-25.284 25.284v184.212c0 12.642-10.836 23.478-23.478 23.478h-186.018c-14.448 0-25.284 10.836-25.284 25.284s12.642 27.090 25.284 27.090h184.212c41.538 0 75.852-34.314 75.852-75.852v-184.212c0-14.448-10.836-25.284-25.284-25.284zM166.152-64h-133.644c-14.448 0-25.284 10.836-25.284 25.284v218.526c0 14.448 10.836 25.284 25.284 25.284h133.644c14.448 0 25.284-10.836 25.284-25.284v-218.526c0-14.448-12.642-25.284-25.284-25.284zM57.792-11.626h81.27v166.152h-81.27v-166.152zM433.439-64h-133.644c-14.448 0-25.284 10.836-25.284 25.284v402.737c0 14.448 10.836 25.284 25.284 25.284h133.644c14.448 0 25.284-10.836 25.284-25.284v-400.931c0-16.254-10.836-27.090-25.284-27.090zM326.885-11.626h81.27v350.363h-81.27v-350.363zM702.533-64h-133.644c-14.448 0-25.284 10.836-25.284 25.284v294.377c0 14.448 10.836 25.284 25.284 25.284h133.644c14.448 0 25.284-10.836 25.284-25.284v-294.377c0-14.448-12.642-25.284-25.284-25.284zM594.173-11.626h81.27v242.004h-81.27v-242.004zM969.82-64h-133.644c-14.448 0-25.284 10.836-25.284 25.284v545.411c0 14.448 10.836 25.284 25.284 25.284h133.644c14.448 0 25.284-10.836 25.284-25.284v-545.411c0-14.448-10.836-25.284-25.284-25.284zM863.266-11.626h81.27v493.037h-81.27v-493.037z" />
<glyph unicode="&#xe907;" glyph-name="menu_expand" d="M1024 894.984h-1024v-128.226h1024v128.226zM0 1.016h1024v128.226h-1024v-128.226zM704.339 383.887h-704.339v-128.226h704.339v128.226zM704.339 640.339h-704.339v-128.226h704.339v128.226zM767.549 257.467l256.451 191.436-256.451 191.436v-382.871z" />
<glyph unicode="&#xe908;" glyph-name="negative" d="M1024 396.529c0-3.612 0-7.224 0-16.254 0-39.732-27.090-92.106-90.3-110.166-39.732-10.836-133.644-10.836-270.899-14.448 7.224-30.702 7.224-57.792 7.224-104.748 0-115.584-83.076-214.914-157.122-214.914-52.374 0-95.718 43.344-95.718 95.718 0 65.016-19.866 175.182-128.226 231.168-7.224 3.612-30.702 14.448-34.314 16.254l1.806 1.806c-18.060-14.448-39.732-25.284-65.016-25.284h-95.718c-52.374 0-95.718 43.344-95.718 95.718v512.903c0 52.374 43.344 95.718 95.718 95.718h95.718c37.926 0 70.434-23.478 84.882-55.986 0 0 1.806 0 1.806 0 1.806 0 5.418 1.806 7.224 1.806 0 0 0 0 1.806 0 18.060 5.418 54.18 12.642 130.032 30.702 16.254 5.418 102.942 23.478 191.436 23.478h175.182c54.18 0 92.106-19.866 113.778-61.404 0 0 7.224-14.448 14.448-34.314 3.612-14.448 5.418-36.12 0-55.986 34.314-23.478 45.15-59.598 52.374-83.076 12.642-37.926 9.030-66.822 0-86.688 19.866-18.060 36.12-45.15 43.344-88.494 3.612-27.090 0-54.18-12.642-75.852 18.060-19.866 27.090-45.15 27.090-70.434l1.806-7.224zM223.944 864.282c0 18.060-14.448 32.508-32.508 32.508h-95.718c-18.060 0-32.508-14.448-32.508-32.508v-511.097c0-18.060 14.448-32.508 32.508-32.508h95.718c18.060 0 32.508 14.448 32.508 32.508v511.097zM921.058 331.513c34.314 10.836 37.926 39.732 37.926 48.762 0 10.836 0 9.030 0 19.866 0 16.254-7.224 46.956-63.21 46.956h-63.21c-9.030 0-16.254 7.224-16.254 16.254s7.224 16.254 16.254 16.254h61.404c48.762 0 54.18 39.732 50.568 59.598-3.612 23.478-14.448 68.628-68.628 68.628h-75.852c-9.030 0-16.254 7.224-16.254 16.254s7.224 16.254 16.254 16.254h63.21c54.18 0 48.762 41.538 41.538 65.016-10.836 32.508-16.254 61.404-84.882 61.404h-52.374c-9.030 0-16.254 7.224-16.254 16.254s7.224 16.254 16.254 16.254h50.568c34.314 0 36.12 32.508 32.508 45.15s-9.030 23.478-9.030 23.478c-9.030 18.060-25.284 27.090-57.792 27.090h-175.182c-88.494 0-175.182-19.866-176.988-19.866-133.644-30.702-139.062-32.508-148.092-36.12 0 0-27.090-5.418-27.090-28.896v-442.469c0-14.448 9.030-28.896 25.284-32.508 1.806 0 5.418-1.806 7.224-1.806 144.48-59.598 189.63-191.436 191.436-301.601 0-14.448 12.642-32.508 32.508-32.508 34.314 0 93.912 68.628 93.912 151.704 0 75.852-3.612 88.494-28.896 167.958 317.855 1.806 316.049 5.418 343.139 12.642v0zM144.48 864.282c27.090 0 48.762-21.672 48.762-48.762s-21.672-48.762-48.762-48.762c-27.090 0-48.762 21.672-48.762 48.762s21.672 48.762 48.762 48.762v0zM144.48 799.266c9.030 0 16.254 7.224 16.254 16.254s-7.224 16.254-16.254 16.254c-9.030 0-16.254-7.224-16.254-16.254s7.224-16.254 16.254-16.254v0z" />
<glyph unicode="&#xe909;" glyph-name="neutral" d="M870.49 755.922c-18.060 0-36.12-5.418-50.568-14.448v65.016c0 55.986-45.15 102.942-102.942 102.942-21.672 0-41.538-7.224-57.792-18.060-14.448 39.732-52.374 68.628-95.718 68.628-45.15 0-83.076-28.896-95.718-68.628-16.254 10.836-36.12 18.060-57.792 18.060-55.986 0-102.942-45.15-102.942-102.942v-377.453l-68.628 119.196c-12.642 23.478-34.314 41.538-61.404 48.762-25.284 7.224-52.374 3.612-74.046-10.836-46.956-27.090-63.21-90.3-39.732-140.868 1.806-3.612 34.314-70.434 135.45-274.511 48.762-95.718 101.136-164.346 157.122-204.078 43.344-30.702 74.046-32.508 79.464-32.508h256.451c43.344 0 84.882 14.448 121.002 41.538 34.314 27.090 63.21 65.016 88.494 113.778 46.956 95.718 72.24 227.556 72.24 382.871v180.6c0 55.986-46.956 102.942-102.942 102.942v0zM921.058 474.187c0-146.286-23.478-270.899-66.822-359.393-28.896-57.792-81.27-126.42-162.54-126.42h-256.451c-1.806 0-23.478 1.806-55.986 27.090-32.508 23.478-81.27 75.852-135.45 180.6-102.942 205.884-135.45 272.705-135.45 272.705s0 0 0 0c-12.642 25.284-3.612 59.598 19.866 74.046 10.836 7.224 23.478 7.224 34.314 5.418 12.642-3.612 23.478-12.642 30.702-23.478 0 0 0 0 0 0l79.464-139.062c16.254-28.896 34.314-41.538 54.18-37.926 19.866 5.418 30.702 25.284 30.702 59.598v399.125c0 28.896 23.478 50.568 50.568 50.568 28.896 0 50.568-23.478 50.568-50.568v-332.303c0-14.448 10.836-25.284 25.284-25.284s25.284 10.836 25.284 25.284v382.871c0 28.896 23.478 50.568 50.568 50.568 28.896 0 50.568-23.478 50.568-50.568v-384.677c0-14.448 10.836-25.284 25.284-25.284s25.284 10.836 25.284 25.284v334.109c0 28.896 23.478 50.568 50.568 50.568 28.896 0 50.568-23.478 50.568-50.568v-384.677c0-14.448 10.836-25.284 25.284-25.284s25.284 10.836 25.284 25.284v231.168c0 28.896 23.478 50.568 50.568 50.568 28.896 0 50.568-23.478 50.568-50.568l7.224-178.794z" />
<glyph unicode="&#xe90a;" glyph-name="positive" d="M1024 499.471v-7.224c-1.806-23.478-9.030-48.762-27.090-70.434 12.642-21.672 16.254-48.762 12.642-75.852-7.224-41.538-23.478-70.434-43.344-88.494 9.030-19.866 12.642-48.762 0-86.688-7.224-23.478-18.060-59.598-52.374-83.076 5.418-21.672 3.612-41.538 0-55.986-5.418-19.866-12.642-34.314-14.448-34.314-23.478-41.538-61.404-61.404-113.778-61.404h-175.182c-88.494 0-175.182 18.060-191.436 21.672-75.852 18.060-111.972 25.284-130.032 30.702 0 0 0 0-1.806 0-3.612 0-5.418 1.806-7.224 1.806 0 0-1.806 0-1.806 0-16.254-32.508-46.956-55.986-84.882-55.986h-97.524c-52.374 0-95.718 43.344-95.718 95.718v514.709c0 52.374 43.344 95.718 95.718 95.718h95.718c23.478 0 46.956-10.836 63.21-25.284l-1.806 1.806c3.612 1.806 25.284 12.642 34.314 16.254 108.36 55.986 128.226 166.152 128.226 231.168 0 52.374 43.344 95.718 95.718 95.718 74.046 0 157.122-101.136 157.122-214.914 0-48.762-1.806-75.852-7.224-104.748 137.256-3.612 231.168-3.612 270.899-14.448 63.21-18.060 90.3-68.628 90.3-110.166 1.806-10.836 1.806-12.642 1.806-16.254v0zM223.944 544.621c0 18.060-14.448 32.508-32.508 32.508h-95.718c-18.060 0-32.508-14.448-32.508-32.508v-511.097c0-18.060 14.448-32.508 32.508-32.508h95.718c18.060 0 32.508 14.448 32.508 32.508v511.097zM921.058 564.487c-28.896 7.224-25.284 12.642-346.751 12.642 27.090 79.464 28.896 92.106 28.896 167.958 0 84.882-59.598 151.704-93.912 151.704-19.866 0-32.508-16.254-32.508-32.508-1.806-108.36-45.15-242.004-191.436-301.601-1.806 0-5.418-1.806-7.224-1.806-16.254-5.418-25.284-18.060-25.284-32.508v-442.469c0-23.478 27.090-28.896 27.090-28.896 9.030-1.806 16.254-5.418 148.092-36.12 1.806 0 88.494-19.866 176.988-19.866h175.182c32.508 0 48.762 10.836 57.792 27.090 0 0 5.418 10.836 9.030 23.478s1.806 45.15-32.508 45.15h-50.568c-9.030 0-16.254 7.224-16.254 16.254s7.224 16.254 16.254 16.254h52.374c68.628 0 74.046 30.702 84.882 61.404 7.224 25.284 12.642 65.016-41.538 65.016h-63.21c-9.030 0-16.254 7.224-16.254 16.254s7.224 16.254 16.254 16.254h75.852c54.18 0 65.016 45.15 68.628 68.628 3.612 19.866-3.612 59.598-50.568 59.598h-61.404c-9.030 0-16.254 7.224-16.254 16.254s7.224 16.254 16.254 16.254h63.21c55.986 0 63.21 30.702 63.21 46.956 0 10.836 0 9.030 0 19.866 5.418 9.030 1.806 37.926-34.314 48.762v0zM144.48 31.718c-27.090 0-48.762 21.672-48.762 48.762s21.672 48.762 48.762 48.762c27.090 0 48.762-21.672 48.762-48.762-1.806-27.090-23.478-48.762-48.762-48.762v0zM144.48 96.734c-9.030 0-16.254-7.224-16.254-16.254s7.224-16.254 16.254-16.254c9.030 0 16.254 7.224 16.254 16.254s-7.224 16.254-16.254 16.254v0z" />
<glyph unicode="&#xe90b;" glyph-name="shop" d="M1014.97 615.055c0 0-1.806 0 0 0 0 3.612-1.806 5.418-1.806 7.224l-88.494 214.914c-14.448 45.15-57.792 72.24-108.36 72.24h-606.815c-50.568 0-90.3-27.090-104.748-70.434l-93.912-218.526c0-1.806-1.806-3.612-1.806-5.418-5.418-21.672-9.030-41.538-9.030-63.21 0-75.852 41.538-144.48 108.36-178.794 27.090-14.448 59.598-21.672 95.718-21.672 61.404 0 117.39 27.090 155.316 72.24 37.926-45.15 93.912-72.24 153.51-72.24s115.584 27.090 153.51 72.24c37.926-45.15 93.912-72.24 155.316-72.24 36.12 0 68.628 7.224 97.524 23.478 65.016 36.12 106.554 104.748 106.554 178.794-1.806 19.866-5.418 41.538-10.836 61.404v0zM883.132 438.067c-16.254-9.030-37.926-14.448-61.404-14.448-45.15 0-86.688 23.478-110.166 61.404-1.806 3.612-5.418 9.030-9.030 16.254-5.418 7.224-16.254 14.448-36.12 14.448-14.448 0-27.090-5.418-36.12-14.448-5.418-5.418-7.224-10.836-9.030-14.448-23.478-37.926-65.016-61.404-108.36-61.404-45.15 0-84.882 23.478-108.36 61.404-1.806 3.612-3.612 9.030-9.030 14.448-18.060 19.866-55.986 19.866-70.434 1.806-5.418-5.418-9.030-12.642-10.836-16.254-23.478-37.926-65.016-61.404-110.166-61.404-23.478 0-45.15 5.418-61.404 12.642-41.538 21.672-68.628 66.822-68.628 113.778 0 14.448 1.806 28.896 7.224 41.538 0 1.806 0 1.806 0 3.612l92.106 216.72c1.806 5.418 7.224 21.672 36.12 21.672h606.815c10.836 0 32.508-3.612 39.732-23.478l86.688-213.108c0-1.806 0-3.612 1.806-3.612 5.418-14.448 7.224-27.090 7.224-41.538-1.806-48.762-27.090-92.106-68.628-115.584v0zM910.222 320.677c-19.866 0-36.12-16.254-36.12-36.12v-202.272c0-10.836-9.030-21.672-21.672-21.672h-695.309c-10.836 0-21.672 9.030-21.672 19.866v198.66c0 19.866-16.254 36.12-36.12 36.12s-36.12-16.254-36.12-36.12v-198.66c0-52.374 43.344-93.912 93.912-93.912h695.309c52.374 0 93.912 43.344 93.912 93.912v202.272c1.806 19.866-16.254 37.926-36.12 37.926v0zM801.862 578.935h-592.367c-19.866 0-36.12 16.254-36.12 36.12s16.254 36.12 36.12 36.12h590.561c19.866 0 36.12-16.254 36.12-36.12 1.806-19.866-14.448-36.12-34.314-36.12v0zM650.159 15.464h-72.24v171.57c0 9.030-7.224 14.448-14.448 14.448h-102.942c-9.030 0-14.448-7.224-14.448-14.448v-171.57h-72.24v171.57c0 48.762 39.732 86.688 86.688 86.688h102.942c48.762 0 86.688-39.732 86.688-86.688v-171.57z" />
<glyph unicode="&#xe90c;" glyph-name="arrow_down" d="M511.097 172.586c-18.060 0-34.314 5.418-46.956 18.060l-442.469 411.767c-28.896 27.090-30.702 70.434-3.612 99.33s70.434 30.702 99.33 3.612l393.707-366.617 393.707 366.617c28.896 27.090 72.24 25.284 99.33-3.612s25.284-72.24-3.612-99.33l-440.663-411.767c-14.448-12.642-30.702-18.060-48.762-18.060z" />
<glyph unicode="&#xe90d;" glyph-name="arrow_left" d="M787.414 448.903c0 18.060-5.418 34.314-18.060 46.956l-411.767 442.469c-27.090 28.896-70.434 30.702-99.33 3.612s-30.702-70.434-3.612-99.33l366.617-393.707-366.617-395.513c-27.090-28.896-25.284-72.24 3.612-99.33s72.24-25.284 99.33 3.612l411.767 442.469c12.642 14.448 18.060 30.702 18.060 48.762z" />
<glyph unicode="&#xe90e;" glyph-name="arrow_right" d="M236.586 448.903c0 18.060 5.418 34.314 18.060 46.956l411.767 442.469c27.090 28.896 70.434 30.702 99.33 3.612s28.896-72.24 3.612-99.33l-366.617-393.707 366.617-393.707c27.090-28.896 25.284-72.24-3.612-99.33s-72.24-25.284-99.33 3.612l-411.767 440.663c-12.642 14.448-18.060 30.702-18.060 48.762z" />
<glyph unicode="&#xe90f;" glyph-name="arrow_up" d="M511.097 723.414c-18.060 0-34.314-5.418-46.956-18.060l-442.469-411.767c-28.896-27.090-30.702-70.434-3.612-99.33s72.24-28.896 99.33-3.612l393.707 366.617 393.707-366.617c28.896-27.090 72.24-25.284 99.33 3.612s25.284 72.24-3.612 99.33l-440.663 411.767c-14.448 12.642-30.702 18.060-48.762 18.060z" />
<glyph unicode="&#xe910;" glyph-name="ascend" d="M511.097 960c27.090 0 52.374-10.836 70.434-28.896l359.393-359.393c37.926-37.926 37.926-101.136 0-140.868-37.926-37.926-101.136-37.926-140.868 0l-288.959 288.959-288.959-288.959c-37.926-37.926-101.136-37.926-140.868 0-37.926 37.926-37.926 101.136 0 140.868l361.199 359.393c18.060 18.060 43.344 28.896 68.628 28.896zM511.097 880.536c54.18 0 99.33-45.15 99.33-99.33v-745.877c0-54.18-45.15-99.33-99.33-99.33s-99.33 45.15-99.33 99.33v745.877c1.806 54.18 45.15 99.33 99.33 99.33z" />
<glyph unicode="&#xe911;" glyph-name="calendar" d="M536.381 239.407h-48.762c-27.090 0-50.568-23.478-50.568-50.568s23.478-50.568 50.568-50.568h48.762c27.090 0 50.568 21.672 50.568 50.568s-23.478 50.568-50.568 50.568zM1016.776 560.875c0 3.612 0 7.224-1.806 10.836v113.778c0 102.942-83.076 186.018-186.018 186.018h-65.016v37.926c0 27.090-23.478 50.568-50.568 50.568s-50.568-23.478-50.568-50.568v-37.926h-314.243v37.926c0 27.090-23.478 50.568-50.568 50.568s-50.568-23.478-50.568-50.568v-37.926h-54.18c-102.942 0-186.018-83.076-186.018-186.018v-563.471c0-95.718 74.046-175.182 167.958-184.212h653.771c102.942 0 186.018 83.076 186.018 186.018v426.215c1.806 3.612 1.806 7.224 1.806 10.836zM193.242 795.654v0h54.18v-57.792c0-27.090 21.672-50.568 50.568-50.568 27.090 0 50.568 21.672 50.568 50.568v57.792h316.049v-57.792c0-27.090 21.672-50.568 50.568-50.568 27.090 0 50.568 21.672 50.568 50.568v57.792h65.016c61.404 0 110.166-48.762 110.166-110.166v-74.046h-854.236c-1.806 0-1.806 0-3.612 0v74.046c0 61.404 48.762 110.166 110.166 110.166zM828.952 11.852h-635.711c-61.404 0-110.166 48.762-110.166 110.166v388.289c1.806 0 1.806 0 3.612 0h852.43v-388.289c0-61.404-48.762-110.166-110.166-110.166zM310.631 398.335h-48.762c-27.090 0-50.568-21.672-50.568-50.568 0-27.090 23.478-50.568 50.568-50.568h48.762c27.090 0 50.568 23.478 50.568 50.568s-21.672 50.568-50.568 50.568zM536.381 398.335h-48.762c-27.090 0-50.568-21.672-50.568-50.568 0-27.090 23.478-50.568 50.568-50.568h48.762c27.090 0 50.568 23.478 50.568 50.568s-23.478 50.568-50.568 50.568zM760.325 398.335h-48.762c-27.090 0-50.568-21.672-50.568-50.568 0-27.090 21.672-50.568 50.568-50.568h48.762c27.090 0 50.568 23.478 50.568 50.568s-23.478 50.568-50.568 50.568zM310.631 239.407h-48.762c-27.090 0-50.568-23.478-50.568-50.568s23.478-50.568 50.568-50.568h48.762c27.090 0 50.568 21.672 50.568 50.568s-21.672 50.568-50.568 50.568zM760.325 239.407h-48.762c-27.090 0-50.568-23.478-50.568-50.568s21.672-50.568 50.568-50.568h48.762c27.090 0 50.568 21.672 50.568 50.568s-23.478 50.568-50.568 50.568z" />
<glyph unicode="&#xe912;" glyph-name="link" d="M639.323 566.293c-7.224 7.224-16.254 14.448-25.284 21.672v0c-9.030 9.030-21.672 14.448-34.314 14.448-27.090 0-48.762-21.672-48.762-48.762 0-12.642 3.612-23.478 10.836-32.508v0c3.612-3.612 7.224-7.224 12.642-10.836s9.030-7.224 12.642-12.642l3.612-3.612c50.568-50.568 36.12-139.062-14.448-189.63l-218.526-218.526c-50.568-50.568-133.644-50.568-186.018 0l-3.612 3.612c-50.568 50.568-50.568 133.644 0 186.018l95.718 95.718c12.642 9.030 19.866 25.284 19.866 41.538 0 28.896-23.478 54.18-54.18 54.18-10.836 0-21.672-3.612-30.702-9.030 0 0 0 0 0 0l1.806-1.806c-3.612-3.612-7.224-5.418-10.836-9.030l-99.33-93.912c-93.912-93.912-93.912-247.422 0-343.139l3.612-3.612c93.912-93.912 247.422-93.912 343.139 0l218.526 218.526c93.912 93.912 101.136 242.004 7.224 335.915l-3.612 5.418zM953.566 885.954l-3.612 3.612c-93.912 93.912-247.422 93.912-343.139 0l-218.526-218.526c-93.912-93.912-99.33-229.362-5.418-325.079l3.612-3.612c3.612-3.612 9.030-9.030 12.642-12.642s7.224-7.224 10.836-9.030c0 0 0 0 0 0v0c7.224-3.612 14.448-5.418 23.478-5.418 25.284 0 46.956 21.672 46.956 46.956 0 7.224-1.806 14.448-5.418 19.866-5.418 14.448-18.060 21.672-25.284 30.702l-3.612 3.612c-50.568 50.568-32.508 124.614 19.866 176.988l220.332 216.72c50.568 50.568 133.644 50.568 186.018 0l3.612-3.612c50.568-50.568 50.568-133.644 0-186.018l-95.718-95.718c-12.642-9.030-21.672-25.284-21.672-43.344 0-28.896 23.478-52.374 52.374-52.374 10.836 0 19.866 3.612 27.090 7.224 0 0 0 0 0 0l1.806 1.806c5.418 3.612 9.030 7.224 12.642 10.836l101.136 93.912c93.912 93.912 93.912 249.228 0 343.139z" />
<glyph unicode="&#xe913;" glyph-name="login_password" d="M834.56 545.28h-25.6v204.8c0 117.76-92.16 209.92-204.8 209.92h-184.32c-112.64 0-204.8-92.16-204.8-209.92v-204.8h-25.6c-66.56 0-122.88-56.32-122.88-122.88 0-343.040 199.68-486.4 435.2-486.4 220.16 0 450.56 117.76 450.56 486.4 5.12 66.56-51.2 122.88-117.76 122.88zM322.56 750.080c0 51.2 40.96 92.16 92.16 92.16h184.32c51.2 0 92.16-40.96 92.16-92.16v-204.8h-368.64v204.8zM558.080 232.96v-97.28h-92.16v97.28c-25.6 15.36-40.96 46.080-40.96 76.8 0 51.2 40.96 87.040 87.040 87.040 51.2 0 87.040-40.96 87.040-87.040 0-30.72-15.36-61.44-40.96-76.8z" />
<glyph unicode="&#xe914;" glyph-name="login_account" d="M890.88 796.16c-92.16 102.4-230.4 163.84-378.88 163.84-281.6 0-512-230.4-512-512s230.4-512 512-512c281.6 0 512 230.4 512 512 0 133.12-51.2 256-133.12 348.16zM512-33.28c-107.52 0-225.28 51.2-307.2 112.64 5.12 61.44 220.16 87.040 220.16 87.040v61.44c-71.68 71.68-97.28 179.2-97.28 286.72 0 174.080 71.68 245.76 209.92 245.76 158.72 0 204.8-102.4 199.68-256-5.12-112.64-35.84-215.040-117.76-286.72v-61.44c0 0 174.080-25.6 204.8-81.92 0 0 0-5.12 0-5.12-87.040-51.2-209.92-102.4-312.32-102.4z" />
</font>
</defs>
</svg>
